{
  "asset": {
    "generator": "glTF-Transform v4.1.3",
    "version": "2.0"
  },
  "accessors": [
    {
      "name": "indices",
      "type": "SCALAR",
      "componentType": 5123,
      "count": 36,
      "bufferView": 0,
      "byteOffset": 0
    },
    {
      "name": "helmet_indices",
      "type": "SCALAR",
      "componentType": 5123,
      "count": 864,
      "bufferView": 0,
      "byteOffset": 72
    },
    {
      "name": "visor_indices",
      "type": "SCALAR",
      "componentType": 5123,
      "count": 108,
      "bufferView": 0,
      "byteOffset": 1800
    },
    {
      "name": "left_arm_indices",
      "type": "SCALAR",
      "componentType": 5123,
      "count": 3,
      "bufferView": 0,
      "byteOffset": 2016
    },
    {
      "name": "right_arm_indices",
      "type": "SCALAR",
      "componentType": 5123,
      "count": 3,
      "bufferView": 0,
      "byteOffset": 2024
    },
    {
      "name": "left_leg_indices",
      "type": "SCALAR",
      "componentType": 5123,
      "count": 3,
      "bufferView": 0,
      "byteOffset": 2032
    },
    {
      "name": "right_leg_indices",
      "type": "SCALAR",
      "componentType": 5123,
      "count": 3,
      "bufferView": 0,
      "byteOffset": 2040
    },
    {
      "name": "positions",
      "type": "VEC3",
      "componentType": 5126,
      "count": 8,
      "max": [
        0.5,
        0.699999988079071,
        0.30000001192092896
      ],
      "min": [
        -0.5,
        -1,
        -0.30000001192092896
      ],
      "bufferView": 1,
      "byteOffset": 0
    },
    {
      "name": "helmet_positions",
      "type": "VEC3",
      "componentType": 5126,
      "count": 169,
      "max": [
        0.4000000059604645,
        1.399999976158142,
        0.4000000059604645
      ],
      "min": [
        -0.4000000059604645,
        0.6000000238418579,
        -0.4000000059604645
      ],
      "bufferView": 2,
      "byteOffset": 0
    },
    {
      "name": "visor_positions",
      "type": "VEC3",
      "componentType": 5126,
      "count": 28,
      "max": [
        2.081899616307561e-17,
        1.2404162883758545,
        0.4399999976158142
      ],
      "min": [
        -0.3400000035762787,
        1,
        -0.23999999463558197
      ],
      "bufferView": 3,
      "byteOffset": 0
    },
    {
      "name": "left_arm_positions",
      "type": "VEC3",
      "componentType": 5126,
      "count": 3,
      "max": [
        -0.5,
        0.30000001192092896,
        0.30000001192092896
      ],
      "min": [
        -0.8999999761581421,
        -0.699999988079071,
        0
      ],
      "bufferView": 4,
      "byteOffset": 0
    },
    {
      "name": "right_arm_positions",
      "type": "VEC3",
      "componentType": 5126,
      "count": 3,
      "max": [
        0.8999999761581421,
        0.30000001192092896,
        0.4000000059604645
      ],
      "min": [
        0.5,
        -0.30000001192092896,
        0
      ],
      "bufferView": 5,
      "byteOffset": 0
    },
    {
      "name": "left_leg_positions",
      "type": "VEC3",
      "componentType": 5126,
      "count": 3,
      "max": [
        -0.20000000298023224,
        -1,
        0.20000000298023224
      ],
      "min": [
        -0.30000001192092896,
        -2,
        0
      ],
      "bufferView": 6,
      "byteOffset": 0
    },
    {
      "name": "right_leg_positions",
      "type": "VEC3",
      "componentType": 5126,
      "count": 3,
      "max": [
        0.4000000059604645,
        -1,
        0
      ],
      "min": [
        0.20000000298023224,
        -2,
        -0.20000000298023224
      ],
      "bufferView": 7,
      "byteOffset": 0
    }
  ],
  "bufferViews": [
    {
      "buffer": 0,
      "byteOffset": 0,
      "byteLength": 2048,
      "target": 34963
    },
    {
      "buffer": 0,
      "byteOffset": 2048,
      "byteLength": 96,
      "byteStride": 12,
      "target": 34962
    },
    {
      "buffer": 0,
      "byteOffset": 2144,
      "byteLength": 2028,
      "byteStride": 12,
      "target": 34962
    },
    {
      "buffer": 0,
      "byteOffset": 4172,
      "byteLength": 336,
      "byteStride": 12,
      "target": 34962
    },
    {
      "buffer": 0,
      "byteOffset": 4508,
      "byteLength": 36,
      "byteStride": 12,
      "target": 34962
    },
    {
      "buffer": 0,
      "byteOffset": 4544,
      "byteLength": 36,
      "byteStride": 12,
      "target": 34962
    },
    {
      "buffer": 0,
      "byteOffset": 4580,
      "byteLength": 36,
      "byteStride": 12,
      "target": 34962
    },
    {
      "buffer": 0,
      "byteOffset": 4616,
      "byteLength": 36,
      "byteStride": 12,
      "target": 34962
    }
  ],
  "buffers": [
    {
      "uri": "astronaut.bin",
      "byteLength": 4652
    }
  ],
  "materials": [
    {
      "name": "white",
      "pbrMetallicRoughness": {
        "baseColorFactor": [
          0.9,
          0.9,
          0.9,
          1
        ]
      }
    },
    {
      "name": "visor",
      "pbrMetallicRoughness": {
        "baseColorFactor": [
          0.2,
          0.4,
          0.8,
          0.8
        ],
        "roughnessFactor": 0.1,
        "metallicFactor": 0.9
      }
    },
    {
      "name": "orange",
      "pbrMetallicRoughness": {
        "baseColorFactor": [
          0.9,
          0.5,
          0.1,
          1
        ]
      }
    }
  ],
  "meshes": [
    {
      "name": "body",
      "primitives": [
        {
          "attributes": {
            "POSITION": 7
          },
          "mode": 4,
          "material": 2,
          "indices": 0
        }
      ]
    },
    {
      "name": "helmet",
      "primitives": [
        {
          "attributes": {
            "POSITION": 8
          },
          "mode": 4,
          "material": 0,
          "indices": 1
        }
      ]
    },
    {
      "name": "visor",
      "primitives": [
        {
          "attributes": {
            "POSITION": 9
          },
          "mode": 4,
          "material": 1,
          "indices": 2
        }
      ]
    },
    {
      "name": "left_arm",
      "primitives": [
        {
          "attributes": {
            "POSITION": 10
          },
          "mode": 1,
          "material": 2,
          "indices": 3
        }
      ]
    },
    {
      "name": "right_arm",
      "primitives": [
        {
          "attributes": {
            "POSITION": 11
          },
          "mode": 1,
          "material": 2,
          "indices": 4
        }
      ]
    },
    {
      "name": "left_leg",
      "primitives": [
        {
          "attributes": {
            "POSITION": 12
          },
          "mode": 1,
          "material": 2,
          "indices": 5
        }
      ]
    },
    {
      "name": "right_leg",
      "primitives": [
        {
          "attributes": {
            "POSITION": 13
          },
          "mode": 1,
          "material": 2,
          "indices": 6
        }
      ]
    }
  ],
  "nodes": [
    {
      "name": "astronaut",
      "children": [
        1,
        2,
        3,
        4,
        5,
        6,
        7
      ]
    },
    {
      "name": "body",
      "mesh": 0
    },
    {
      "name": "helmet",
      "mesh": 1
    },
    {
      "name": "visor",
      "mesh": 2
    },
    {
      "name": "left_arm",
      "mesh": 3
    },
    {
      "name": "right_arm",
      "mesh": 4
    },
    {
      "name": "left_leg",
      "mesh": 5
    },
    {
      "name": "right_leg",
      "mesh": 6
    }
  ],
  "scenes": [
    {
      "nodes": [
        0
      ]
    }
  ]
}